<svg xmlns="http://www.w3.org/2000/svg" width="720" height="420" viewBox="0 0 720 420" role="img" aria-labelledby="title desc">
  <title id="title">Map pin screenshot sample</title>
  <desc id="desc">Illustrative sample showing what to capture from a map screen before travel.</desc>
  <rect width="720" height="420" fill="#f7f8fb"/>
  <rect x="24" y="24" width="672" height="372" rx="18" fill="#ffffff" stroke="#c9d3e0" stroke-width="2"/>
  <rect x="48" y="52" width="624" height="52" rx="8" fill="#eef3fb" stroke="#c9d3e0"/>
  <text x="68" y="85" font-family="Arial, sans-serif" font-size="22" font-weight="700" fill="#24324a">Final destination place page</text>
  <rect x="48" y="124" width="394" height="244" rx="8" fill="#e8f1e8" stroke="#b9c8b9"/>
  <path d="M62 158 C128 128 169 197 236 166 S340 139 421 179" fill="none" stroke="#ffffff" stroke-width="18" stroke-linecap="round"/>
  <path d="M70 260 C141 229 184 289 248 255 S338 232 426 290" fill="none" stroke="#ffffff" stroke-width="14" stroke-linecap="round"/>
  <path d="M112 131 L137 361" stroke="#c7d7c7" stroke-width="12"/>
  <path d="M275 127 L253 366" stroke="#c7d7c7" stroke-width="10"/>
  <path d="M374 126 L356 365" stroke="#c7d7c7" stroke-width="10"/>
  <circle cx="286" cy="216" r="15" fill="#1f6feb"/>
  <path d="M286 151 C254 151 228 177 228 209 C228 252 286 314 286 314 C286 314 344 252 344 209 C344 177 318 151 286 151 Z" fill="#d93025"/>
  <circle cx="286" cy="207" r="19" fill="#ffffff"/>
  <circle cx="286" cy="207" r="10" fill="#d93025"/>
  <rect x="464" y="124" width="184" height="244" rx="8" fill="#ffffff" stroke="#d4dce8"/>
  <text x="484" y="158" font-family="Arial, sans-serif" font-size="16" font-weight="700" fill="#24324a">Capture these:</text>
  <circle cx="492" cy="188" r="5" fill="#1f6feb"/>
  <text x="508" y="194" font-family="Arial, sans-serif" font-size="15" fill="#24324a">Place name</text>
  <circle cx="492" cy="224" r="5" fill="#1f6feb"/>
  <text x="508" y="230" font-family="Arial, sans-serif" font-size="15" fill="#24324a">Area / address</text>
  <circle cx="492" cy="260" r="5" fill="#1f6feb"/>
  <text x="508" y="266" font-family="Arial, sans-serif" font-size="15" fill="#24324a">Map pin</text>
  <circle cx="492" cy="296" r="5" fill="#1f6feb"/>
  <text x="508" y="302" font-family="Arial, sans-serif" font-size="15" fill="#24324a">Entrance hint</text>
  <text x="484" y="342" font-family="Arial, sans-serif" font-size="13" fill="#61708a">Illustration only.</text>
</svg>
